<?xml version="1.0" encoding="UTF-8"?>
<svg viewBox="0 0 143 32" xmlns="http://www.w3.org/2000/svg">
<path d="M15.258 26.865a4.043 4.043 0 01-1.133 2.917A4.006 4.006 0 0111.253 31a3.992 3.992 0 01-2.872-1.218 4.028 4.028 0 01-1.133-2.917c.009-.698.2-1.382.557-1.981.356-.6.863-1.094 1.47-1.433-.024.109.09-.055 0 0l1.86-1.652a8.495 8.495 0 002.304-5.793c0-2.926-1.711-5.901-4.17-7.457.094.055-.036-.094 0 0A3.952 3.952 0 017.8 7.116a3.975 3.975 0 01-.557-1.98 4.042 4.042 0 011.133-2.918A4.006 4.006 0 0111.247 1a3.99 3.99 0 012.872 1.218 4.025 4.025 0 011.133 2.917 8.521 8.521 0 002.347 5.832l.817.8c.326.285.668.551 1.024.798.621.33 1.142.826 1.504 1.431a3.902 3.902 0 01-1.504 5.442c.033-.067-.063.036 0 0a8.968 8.968 0 00-3.024 3.183 9.016 9.016 0 00-1.158 4.244zM19.741 5.123c0 .796.235 1.575.676 2.237a4.01 4.01 0 001.798 1.482 3.99 3.99 0 004.366-.873 4.042 4.042 0 00.869-4.386 4.02 4.02 0 00-1.476-1.806 3.994 3.994 0 00-5.058.501 4.038 4.038 0 00-1.175 2.845zM23.748 22.84c-.792 0-1.567.236-2.226.678a4.021 4.021 0 00-1.476 1.806 4.042 4.042 0 00.869 4.387 3.99 3.99 0 004.366.873A4.01 4.01 0 0027.08 29.1a4.039 4.039 0 00-.5-5.082 4 4 0 00-2.832-1.18zM34 15.994c0-.796-.235-1.574-.675-2.236a4.01 4.01 0 00-1.798-1.483 3.99 3.99 0 00-4.367.873 4.042 4.042 0 00-.869 4.387 4.02 4.02 0 001.476 1.806 3.993 3.993 0 002.226.678 4.003 4.003 0 002.832-1.18A4.04 4.04 0 0034 15.993z" fill="#4f46e5"/>
<path d="M5.007 11.969c-.793 0-1.567.236-2.226.678a4.021 4.021 0 00-1.476 1.807 4.042 4.042 0 00.869 4.386 4.001 4.001 0 004.366.873 4.011 4.011 0 001.798-1.483 4.038 4.038 0 00-.5-5.08 4.004 4.004 0 00-2.831-1.181z" fill="#4f46e5"/>
<path d="m43.025 18.772 3.511-0.535q0.224 1.021 0.909 1.55t1.917 0.529q1.357 0 2.042-0.498 0.461-0.348 0.461-0.934 0-0.398-0.249-0.66-0.262-0.249-1.17-0.46-4.234-0.934-5.367-1.706-1.569-1.071-1.569-2.976 0-1.718 1.357-2.889 1.358-1.17 4.209-1.17 2.714 0 4.034 0.884t1.818 2.615l-3.3 0.61q-0.211-0.772-0.803-1.183-0.591-0.411-1.687-0.411-1.382 0-1.98 0.386-0.398 0.274-0.398 0.71 0 0.373 0.349 0.635 0.473 0.349 3.268 0.984t3.904 1.556q1.095 0.934 1.095 2.602 0 1.818-1.519 3.125-1.519 1.308-4.495 1.308-2.702 0-4.277-1.096t-2.06-2.976zm23.067-0.435 3.486 0.585q-0.672 1.917-2.123 2.92-1.45 1.002-3.629 1.002-3.449 0-5.105-2.254-1.308-1.805-1.308-4.557 0-3.287 1.719-5.149 1.718-1.861 4.345-1.861 2.951 0 4.657 1.949 1.706 1.948 1.631 5.97h-8.766q0.038 1.556 0.847 2.422 0.809 0.865 2.017 0.865 0.822 0 1.382-0.448t0.847-1.444zm0.199-3.537q-0.037-1.519-0.784-2.309-0.747-0.791-1.818-0.791-1.146 0-1.893 0.834t-0.734 2.266zm18.348 7.745h-3.498v-6.749q0-2.141-0.225-2.77-0.224-0.629-0.728-0.977-0.504-0.349-1.214-0.349-0.909 0-1.631 0.498t-0.99 1.32-0.268 3.038v5.989h-3.498v-13.223h3.249v1.942q1.731-2.241 4.358-2.241 1.158 0 2.117 0.417t1.451 1.065q0.491 0.647 0.684 1.469t0.193 2.353zm2.746-6.798q0-1.744 0.86-3.375 0.859-1.631 2.434-2.49t3.517-0.859q3.001 0 4.919 1.949 1.917 1.948 1.917 4.924 0 3.001-1.936 4.974-1.936 1.974-4.875 1.974-1.818 0-3.467-0.822-1.65-0.822-2.509-2.409-0.86-1.588-0.86-3.866zm3.586 0.186q0 1.968 0.934 3.014t2.304 1.046q1.369 0 2.297-1.046t0.928-3.038q0-1.943-0.928-2.989t-2.297-1.046q-1.37 0-2.304 1.046t-0.934 3.013zm11.39 6.612v-2.727l4.955-5.69q1.221-1.395 1.806-1.98-0.61 0.038-1.606 0.05l-4.67 0.025v-2.901h10.932v2.478l-5.055 5.827-1.78 1.93q1.457-0.087 1.805-0.087h5.416v3.075zm12.75 0v-2.727l4.955-5.69q1.221-1.395 1.806-1.98-0.61 0.038-1.606 0.05l-4.67 0.025v-2.901h10.932v2.478l-5.055 5.827-1.78 1.93q1.457-0.087 1.805-0.087h5.416v3.075zm16.771-9.189-3.175-0.573q0.536-1.917 1.843-2.839 1.308-0.921 3.885-0.921 2.341 0 3.486 0.554 1.146 0.554 1.613 1.407t0.467 3.132l-0.038 4.084q0 1.743 0.168 2.571t0.629 1.774h-3.461q-0.137-0.349-0.336-1.033-0.088-0.312-0.125-0.411-0.896 0.871-1.917 1.307t-2.179 0.436q-2.042 0-3.219-1.108t-1.177-2.802q0-1.12 0.536-1.998 0.535-0.878 1.5-1.345t2.783-0.816q2.453-0.46 3.399-0.859v-0.348q0-1.009-0.498-1.438-0.498-0.43-1.88-0.43-0.934 0-1.457 0.367-0.523 0.368-0.847 1.289zm4.682 2.839q-0.672 0.224-2.129 0.535-1.457 0.312-1.905 0.61-0.685 0.486-0.685 1.233 0 0.735 0.548 1.27t1.395 0.535q0.946 0 1.805-0.622 0.635-0.473 0.834-1.158 0.137-0.448 0.137-1.706z" fill="#111827" style="white-space:pre"/>
</svg>
